<svg width="118" height="36" viewBox="0 0 118 36" fill="none" xmlns="http://www.w3.org/2000/svg">
<path d="M8.4 22L5.48 16.7H4.66V22H1.24V7.96H6.98C8.08667 7.96 9.02667 8.15333 9.8 8.54C10.5867 8.92667 11.1733 9.46 11.56 10.14C11.9467 10.8067 12.14 11.5533 12.14 12.38C12.14 13.3133 11.8733 14.1467 11.34 14.88C10.82 15.6133 10.0467 16.1333 9.02 16.44L12.26 22H8.4ZM4.66 14.28H6.78C7.40667 14.28 7.87333 14.1267 8.18 13.82C8.5 13.5133 8.66 13.08 8.66 12.52C8.66 11.9867 8.5 11.5667 8.18 11.26C7.87333 10.9533 7.40667 10.8 6.78 10.8H4.66V14.28ZM19.3669 22.16C18.2735 22.16 17.2869 21.9267 16.4069 21.46C15.5402 20.9933 14.8535 20.3267 14.3469 19.46C13.8535 18.5933 13.6069 17.58 13.6069 16.42C13.6069 15.2733 13.8602 14.2667 14.3669 13.4C14.8735 12.52 15.5669 11.8467 16.4469 11.38C17.3269 10.9133 18.3135 10.68 19.4069 10.68C20.5002 10.68 21.4869 10.9133 22.3669 11.38C23.2469 11.8467 23.9402 12.52 24.4469 13.4C24.9535 14.2667 25.2069 15.2733 25.2069 16.42C25.2069 17.5667 24.9469 18.58 24.4269 19.46C23.9202 20.3267 23.2202 20.9933 22.3269 21.46C21.4469 21.9267 20.4602 22.16 19.3669 22.16ZM19.3669 19.2C20.0202 19.2 20.5735 18.96 21.0269 18.48C21.4935 18 21.7269 17.3133 21.7269 16.42C21.7269 15.5267 21.5002 14.84 21.0469 14.36C20.6069 13.88 20.0602 13.64 19.4069 13.64C18.7402 13.64 18.1869 13.88 17.7469 14.36C17.3069 14.8267 17.0869 15.5133 17.0869 16.42C17.0869 17.3133 17.3002 18 17.7269 18.48C18.1669 18.96 18.7135 19.2 19.3669 19.2ZM30.4413 12.42C30.7746 11.9 31.2346 11.48 31.8213 11.16C32.4079 10.84 33.0946 10.68 33.8813 10.68C34.8013 10.68 35.6346 10.9133 36.3813 11.38C37.1279 11.8467 37.7146 12.5133 38.1413 13.38C38.5813 14.2467 38.8013 15.2533 38.8013 16.4C38.8013 17.5467 38.5813 18.56 38.1413 19.44C37.7146 20.3067 37.1279 20.98 36.3813 21.46C35.6346 21.9267 34.8013 22.16 33.8813 22.16C33.1079 22.16 32.4213 22 31.8213 21.68C31.2346 21.36 30.7746 20.9467 30.4413 20.44V27.32H27.0213V10.84H30.4413V12.42ZM35.3213 16.4C35.3213 15.5467 35.0813 14.88 34.6013 14.4C34.1346 13.9067 33.5546 13.66 32.8613 13.66C32.1813 13.66 31.6013 13.9067 31.1213 14.4C30.6546 14.8933 30.4213 15.5667 30.4213 16.42C30.4213 17.2733 30.6546 17.9467 31.1213 18.44C31.6013 18.9333 32.1813 19.18 32.8613 19.18C33.5413 19.18 34.1213 18.9333 34.6013 18.44C35.0813 17.9333 35.3213 17.2533 35.3213 16.4ZM47.4555 10.72C48.7355 10.72 49.7621 11.1467 50.5355 12C51.3088 12.84 51.6955 14 51.6955 15.48V22H48.2955V15.94C48.2955 15.1933 48.1021 14.6133 47.7155 14.2C47.3288 13.7867 46.8088 13.58 46.1555 13.58C45.5021 13.58 44.9821 13.7867 44.5955 14.2C44.2088 14.6133 44.0155 15.1933 44.0155 15.94V22H40.5955V7.2H44.0155V12.34C44.3621 11.8467 44.8355 11.4533 45.4355 11.16C46.0355 10.8667 46.7088 10.72 47.4555 10.72ZM55.792 9.68C55.192 9.68 54.6987 9.50667 54.312 9.16C53.9387 8.8 53.752 8.36 53.752 7.84C53.752 7.30667 53.9387 6.86667 54.312 6.52C54.6987 6.16 55.192 5.98 55.792 5.98C56.3787 5.98 56.8587 6.16 57.232 6.52C57.6187 6.86667 57.812 7.30667 57.812 7.84C57.812 8.36 57.6187 8.8 57.232 9.16C56.8587 9.50667 56.3787 9.68 55.792 9.68ZM57.492 10.84V22H54.072V10.84H57.492ZM70.4905 16.24C70.4905 16.56 70.4705 16.8933 70.4305 17.24H62.6905C62.7438 17.9333 62.9638 18.4667 63.3505 18.84C63.7505 19.2 64.2371 19.38 64.8105 19.38C65.6638 19.38 66.2571 19.02 66.5905 18.3H70.2305C70.0438 19.0333 69.7038 19.6933 69.2105 20.28C68.7305 20.8667 68.1238 21.3267 67.3905 21.66C66.6571 21.9933 65.8371 22.16 64.9305 22.16C63.8371 22.16 62.8638 21.9267 62.0105 21.46C61.1571 20.9933 60.4905 20.3267 60.0105 19.46C59.5305 18.5933 59.2905 17.58 59.2905 16.42C59.2905 15.26 59.5238 14.2467 59.9905 13.38C60.4705 12.5133 61.1371 11.8467 61.9905 11.38C62.8438 10.9133 63.8238 10.68 64.9305 10.68C66.0105 10.68 66.9705 10.9067 67.8105 11.36C68.6505 11.8133 69.3038 12.46 69.7705 13.3C70.2505 14.14 70.4905 15.12 70.4905 16.24ZM66.9905 15.34C66.9905 14.7533 66.7905 14.2867 66.3905 13.94C65.9905 13.5933 65.4905 13.42 64.8905 13.42C64.3171 13.42 63.8305 13.5867 63.4305 13.92C63.0438 14.2533 62.8038 14.7267 62.7105 15.34H66.9905ZM75.7147 7.2V22H72.2947V7.2H75.7147ZM82.7331 22.16C81.7598 22.16 80.8931 21.9933 80.1331 21.66C79.3731 21.3267 78.7731 20.8733 78.3331 20.3C77.8931 19.7133 77.6465 19.06 77.5931 18.34H80.9731C81.0131 18.7267 81.1931 19.04 81.5131 19.28C81.8331 19.52 82.2265 19.64 82.6931 19.64C83.1198 19.64 83.4465 19.56 83.6731 19.4C83.9131 19.2267 84.0331 19.0067 84.0331 18.74C84.0331 18.42 83.8665 18.1867 83.5331 18.04C83.1998 17.88 82.6598 17.7067 81.9131 17.52C81.1131 17.3333 80.4465 17.14 79.9131 16.94C79.3798 16.7267 78.9198 16.4 78.5331 15.96C78.1465 15.5067 77.9531 14.9 77.9531 14.14C77.9531 13.5 78.1265 12.92 78.4731 12.4C78.8331 11.8667 79.3531 11.4467 80.0331 11.14C80.7265 10.8333 81.5465 10.68 82.4931 10.68C83.8931 10.68 84.9931 11.0267 85.7931 11.72C86.6065 12.4133 87.0731 13.3333 87.1931 14.48H84.0331C83.9798 14.0933 83.8065 13.7867 83.5131 13.56C83.2331 13.3333 82.8598 13.22 82.3931 13.22C81.9931 13.22 81.6865 13.3 81.4731 13.46C81.2598 13.6067 81.1531 13.8133 81.1531 14.08C81.1531 14.4 81.3198 14.64 81.6531 14.8C81.9998 14.96 82.5331 15.12 83.2531 15.28C84.0798 15.4933 84.7531 15.7067 85.2731 15.92C85.7931 16.12 86.2465 16.4533 86.6331 16.92C87.0331 17.3733 87.2398 17.9867 87.2531 18.76C87.2531 19.4133 87.0665 20 86.6931 20.52C86.3331 21.0267 85.8065 21.4267 85.1131 21.72C84.4331 22.0133 83.6398 22.16 82.7331 22.16Z" fill="#02BA89"/>
<path d="M41.37 28.22C41.37 27.6667 41.4833 27.1767 41.71 26.75C41.9433 26.3233 42.2567 25.9933 42.65 25.76C43.05 25.52 43.49 25.4 43.97 25.4C44.4033 25.4 44.78 25.4867 45.1 25.66C45.4267 25.8267 45.6867 26.0367 45.88 26.29V25.49H47.03V31H45.88V30.18C45.6867 30.44 45.4233 30.6567 45.09 30.83C44.7567 31.0033 44.3767 31.09 43.95 31.09C43.4767 31.09 43.0433 30.97 42.65 30.73C42.2567 30.4833 41.9433 30.1433 41.71 29.71C41.4833 29.27 41.37 28.7733 41.37 28.22ZM45.88 28.24C45.88 27.86 45.8 27.53 45.64 27.25C45.4867 26.97 45.2833 26.7567 45.03 26.61C44.7767 26.4633 44.5033 26.39 44.21 26.39C43.9167 26.39 43.6433 26.4633 43.39 26.61C43.1367 26.75 42.93 26.96 42.77 27.24C42.6167 27.5133 42.54 27.84 42.54 28.22C42.54 28.6 42.6167 28.9333 42.77 29.22C42.93 29.5067 43.1367 29.7267 43.39 29.88C43.65 30.0267 43.9233 30.1 44.21 30.1C44.5033 30.1 44.7767 30.0267 45.03 29.88C45.2833 29.7333 45.4867 29.52 45.64 29.24C45.8 28.9533 45.88 28.62 45.88 28.24ZM50.7473 25.4C51.174 25.4 51.5507 25.4867 51.8773 25.66C52.2107 25.8267 52.4707 26.0367 52.6573 26.29V25.49H53.8073V31.09C53.8073 31.5967 53.7007 32.0467 53.4873 32.44C53.274 32.84 52.964 33.1533 52.5573 33.38C52.1573 33.6067 51.6773 33.72 51.1173 33.72C50.3707 33.72 49.7507 33.5433 49.2573 33.19C48.764 32.8433 48.484 32.37 48.4173 31.77H49.5473C49.634 32.0567 49.8173 32.2867 50.0973 32.46C50.384 32.64 50.724 32.73 51.1173 32.73C51.5773 32.73 51.9473 32.59 52.2273 32.31C52.514 32.03 52.6573 31.6233 52.6573 31.09V30.17C52.464 30.43 52.2007 30.65 51.8673 30.83C51.5407 31.0033 51.1673 31.09 50.7473 31.09C50.2673 31.09 49.8273 30.97 49.4273 30.73C49.034 30.4833 48.7207 30.1433 48.4873 29.71C48.2607 29.27 48.1473 28.7733 48.1473 28.22C48.1473 27.6667 48.2607 27.1767 48.4873 26.75C48.7207 26.3233 49.034 25.9933 49.4273 25.76C49.8273 25.52 50.2673 25.4 50.7473 25.4ZM52.6573 28.24C52.6573 27.86 52.5773 27.53 52.4173 27.25C52.264 26.97 52.0607 26.7567 51.8073 26.61C51.554 26.4633 51.2807 26.39 50.9873 26.39C50.694 26.39 50.4207 26.4633 50.1673 26.61C49.914 26.75 49.7073 26.96 49.5473 27.24C49.394 27.5133 49.3173 27.84 49.3173 28.22C49.3173 28.6 49.394 28.9333 49.5473 29.22C49.7073 29.5067 49.914 29.7267 50.1673 29.88C50.4273 30.0267 50.7007 30.1 50.9873 30.1C51.2807 30.1 51.554 30.0267 51.8073 29.88C52.0607 29.7333 52.264 29.52 52.4173 29.24C52.5773 28.9533 52.6573 28.62 52.6573 28.24ZM60.3547 28.11C60.3547 28.3167 60.3414 28.5033 60.3147 28.67H56.1047C56.138 29.11 56.3014 29.4633 56.5947 29.73C56.888 29.9967 57.248 30.13 57.6747 30.13C58.288 30.13 58.7214 29.8733 58.9747 29.36H60.2047C60.038 29.8667 59.7347 30.2833 59.2947 30.61C58.8614 30.93 58.3214 31.09 57.6747 31.09C57.148 31.09 56.6747 30.9733 56.2547 30.74C55.8414 30.5 55.5147 30.1667 55.2747 29.74C55.0414 29.3067 54.9247 28.8067 54.9247 28.24C54.9247 27.6733 55.038 27.1767 55.2647 26.75C55.498 26.3167 55.8214 25.9833 56.2347 25.75C56.6547 25.5167 57.1347 25.4 57.6747 25.4C58.1947 25.4 58.658 25.5133 59.0647 25.74C59.4714 25.9667 59.788 26.2867 60.0147 26.7C60.2414 27.1067 60.3547 27.5767 60.3547 28.11ZM59.1647 27.75C59.158 27.33 59.008 26.9933 58.7147 26.74C58.4214 26.4867 58.058 26.36 57.6247 26.36C57.2314 26.36 56.8947 26.4867 56.6147 26.74C56.3347 26.9867 56.168 27.3233 56.1147 27.75H59.1647ZM57.6447 24.24L56.2147 25.1V24.21L57.6447 23.38L59.0747 24.21V25.1L57.6447 24.24ZM64.2566 25.4C64.6899 25.4 65.0766 25.49 65.4166 25.67C65.7632 25.85 66.0332 26.1167 66.2266 26.47C66.4199 26.8233 66.5166 27.25 66.5166 27.75V31H65.3866V27.92C65.3866 27.4267 65.2632 27.05 65.0166 26.79C64.7699 26.5233 64.4332 26.39 64.0066 26.39C63.5799 26.39 63.2399 26.5233 62.9866 26.79C62.7399 27.05 62.6166 27.4267 62.6166 27.92V31H61.4766V25.49H62.6166V26.12C62.8032 25.8933 63.0399 25.7167 63.3266 25.59C63.6199 25.4633 63.9299 25.4 64.2566 25.4ZM67.5907 28.24C67.5907 27.6733 67.704 27.1767 67.9307 26.75C68.164 26.3167 68.484 25.9833 68.8907 25.75C69.2974 25.5167 69.764 25.4 70.2907 25.4C70.9574 25.4 71.5074 25.56 71.9407 25.88C72.3807 26.1933 72.6774 26.6433 72.8307 27.23H71.6007C71.5007 26.9567 71.3407 26.7433 71.1207 26.59C70.9007 26.4367 70.624 26.36 70.2907 26.36C69.824 26.36 69.4507 26.5267 69.1707 26.86C68.8974 27.1867 68.7607 27.6467 68.7607 28.24C68.7607 28.8333 68.8974 29.2967 69.1707 29.63C69.4507 29.9633 69.824 30.13 70.2907 30.13C70.9507 30.13 71.3874 29.84 71.6007 29.26H72.8307C72.6707 29.82 72.3707 30.2667 71.9307 30.6C71.4907 30.9267 70.944 31.09 70.2907 31.09C69.764 31.09 69.2974 30.9733 68.8907 30.74C68.484 30.5 68.164 30.1667 67.9307 29.74C67.704 29.3067 67.5907 28.8067 67.5907 28.24ZM74.5468 24.76C74.3401 24.76 74.1668 24.69 74.0268 24.55C73.8868 24.41 73.8168 24.2367 73.8168 24.03C73.8168 23.8233 73.8868 23.65 74.0268 23.51C74.1668 23.37 74.3401 23.3 74.5468 23.3C74.7468 23.3 74.9168 23.37 75.0568 23.51C75.1968 23.65 75.2668 23.8233 75.2668 24.03C75.2668 24.2367 75.1968 24.41 75.0568 24.55C74.9168 24.69 74.7468 24.76 74.5468 24.76ZM75.1068 25.49V31H73.9668V25.49H75.1068ZM76.2235 28.22C76.2235 27.6667 76.3368 27.1767 76.5635 26.75C76.7968 26.3233 77.1102 25.9933 77.5035 25.76C77.9035 25.52 78.3435 25.4 78.8235 25.4C79.2568 25.4 79.6335 25.4867 79.9535 25.66C80.2802 25.8267 80.5402 26.0367 80.7335 26.29V25.49H81.8835V31H80.7335V30.18C80.5402 30.44 80.2768 30.6567 79.9435 30.83C79.6102 31.0033 79.2302 31.09 78.8035 31.09C78.3302 31.09 77.8968 30.97 77.5035 30.73C77.1102 30.4833 76.7968 30.1433 76.5635 29.71C76.3368 29.27 76.2235 28.7733 76.2235 28.22ZM80.7335 28.24C80.7335 27.86 80.6535 27.53 80.4935 27.25C80.3402 26.97 80.1368 26.7567 79.8835 26.61C79.6302 26.4633 79.3568 26.39 79.0635 26.39C78.7702 26.39 78.4968 26.4633 78.2435 26.61C77.9902 26.75 77.7835 26.96 77.6235 27.24C77.4702 27.5133 77.3935 27.84 77.3935 28.22C77.3935 28.6 77.4702 28.9333 77.6235 29.22C77.7835 29.5067 77.9902 29.7267 78.2435 29.88C78.5035 30.0267 78.7768 30.1 79.0635 30.1C79.3568 30.1 79.6302 30.0267 79.8835 29.88C80.1368 29.7333 80.3402 29.52 80.4935 29.24C80.6535 28.9533 80.7335 28.62 80.7335 28.24ZM85.5985 28.22C85.5985 27.6667 85.7118 27.1767 85.9385 26.75C86.1718 26.3233 86.4852 25.9933 86.8785 25.76C87.2785 25.52 87.7218 25.4 88.2085 25.4C88.5685 25.4 88.9218 25.48 89.2685 25.64C89.6218 25.7933 89.9018 26 90.1085 26.26V23.6H91.2585V31H90.1085V30.17C89.9218 30.4367 89.6618 30.6567 89.3285 30.83C89.0018 31.0033 88.6252 31.09 88.1985 31.09C87.7185 31.09 87.2785 30.97 86.8785 30.73C86.4852 30.4833 86.1718 30.1433 85.9385 29.71C85.7118 29.27 85.5985 28.7733 85.5985 28.22ZM90.1085 28.24C90.1085 27.86 90.0285 27.53 89.8685 27.25C89.7152 26.97 89.5118 26.7567 89.2585 26.61C89.0052 26.4633 88.7318 26.39 88.4385 26.39C88.1452 26.39 87.8718 26.4633 87.6185 26.61C87.3652 26.75 87.1585 26.96 86.9985 27.24C86.8452 27.5133 86.7685 27.84 86.7685 28.22C86.7685 28.6 86.8452 28.9333 86.9985 29.22C87.1585 29.5067 87.3652 29.7267 87.6185 29.88C87.8785 30.0267 88.1518 30.1 88.4385 30.1C88.7318 30.1 89.0052 30.0267 89.2585 29.88C89.5118 29.7333 89.7152 29.52 89.8685 29.24C90.0285 28.9533 90.1085 28.62 90.1085 28.24ZM93.3359 24.76C93.1292 24.76 92.9559 24.69 92.8159 24.55C92.6759 24.41 92.6059 24.2367 92.6059 24.03C92.6059 23.8233 92.6759 23.65 92.8159 23.51C92.9559 23.37 93.1292 23.3 93.3359 23.3C93.5359 23.3 93.7059 23.37 93.8459 23.51C93.9859 23.65 94.0559 23.8233 94.0559 24.03C94.0559 24.2367 93.9859 24.41 93.8459 24.55C93.7059 24.69 93.5359 24.76 93.3359 24.76ZM93.8959 25.49V31H92.7559V25.49H93.8959ZM97.6126 25.4C98.0392 25.4 98.4159 25.4867 98.7426 25.66C99.0759 25.8267 99.3359 26.0367 99.5226 26.29V25.49H100.673V31.09C100.673 31.5967 100.566 32.0467 100.353 32.44C100.139 32.84 99.8292 33.1533 99.4226 33.38C99.0226 33.6067 98.5426 33.72 97.9826 33.72C97.2359 33.72 96.6159 33.5433 96.1226 33.19C95.6292 32.8433 95.3492 32.37 95.2826 31.77H96.4126C96.4992 32.0567 96.6826 32.2867 96.9626 32.46C97.2492 32.64 97.5892 32.73 97.9826 32.73C98.4426 32.73 98.8126 32.59 99.0926 32.31C99.3792 32.03 99.5226 31.6233 99.5226 31.09V30.17C99.3292 30.43 99.0659 30.65 98.7326 30.83C98.4059 31.0033 98.0326 31.09 97.6126 31.09C97.1326 31.09 96.6926 30.97 96.2926 30.73C95.8992 30.4833 95.5859 30.1433 95.3526 29.71C95.1259 29.27 95.0126 28.7733 95.0126 28.22C95.0126 27.6667 95.1259 27.1767 95.3526 26.75C95.5859 26.3233 95.8992 25.9933 96.2926 25.76C96.6926 25.52 97.1326 25.4 97.6126 25.4ZM99.5226 28.24C99.5226 27.86 99.4426 27.53 99.2826 27.25C99.1292 26.97 98.9259 26.7567 98.6726 26.61C98.4192 26.4633 98.1459 26.39 97.8526 26.39C97.5592 26.39 97.2859 26.4633 97.0326 26.61C96.7792 26.75 96.5726 26.96 96.4126 27.24C96.2592 27.5133 96.1826 27.84 96.1826 28.22C96.1826 28.6 96.2592 28.9333 96.4126 29.22C96.5726 29.5067 96.7792 29.7267 97.0326 29.88C97.2926 30.0267 97.5659 30.1 97.8526 30.1C98.1459 30.1 98.4192 30.0267 98.6726 29.88C98.9259 29.7333 99.1292 29.52 99.2826 29.24C99.4426 28.9533 99.5226 28.62 99.5226 28.24ZM102.75 24.76C102.543 24.76 102.37 24.69 102.23 24.55C102.09 24.41 102.02 24.2367 102.02 24.03C102.02 23.8233 102.09 23.65 102.23 23.51C102.37 23.37 102.543 23.3 102.75 23.3C102.95 23.3 103.12 23.37 103.26 23.51C103.4 23.65 103.47 23.8233 103.47 24.03C103.47 24.2367 103.4 24.41 103.26 24.55C103.12 24.69 102.95 24.76 102.75 24.76ZM103.31 25.49V31H102.17V25.49H103.31ZM106.137 26.42V29.47C106.137 29.6767 106.183 29.8267 106.277 29.92C106.377 30.0067 106.543 30.05 106.777 30.05H107.477V31H106.577C106.063 31 105.67 30.88 105.397 30.64C105.123 30.4 104.987 30.01 104.987 29.47V26.42H104.337V25.49H104.987V24.12H106.137V25.49H107.477V26.42H106.137ZM108.147 28.22C108.147 27.6667 108.261 27.1767 108.487 26.75C108.721 26.3233 109.034 25.9933 109.427 25.76C109.827 25.52 110.267 25.4 110.747 25.4C111.181 25.4 111.557 25.4867 111.877 25.66C112.204 25.8267 112.464 26.0367 112.657 26.29V25.49H113.807V31H112.657V30.18C112.464 30.44 112.201 30.6567 111.867 30.83C111.534 31.0033 111.154 31.09 110.727 31.09C110.254 31.09 109.821 30.97 109.427 30.73C109.034 30.4833 108.721 30.1433 108.487 29.71C108.261 29.27 108.147 28.7733 108.147 28.22ZM112.657 28.24C112.657 27.86 112.577 27.53 112.417 27.25C112.264 26.97 112.061 26.7567 111.807 26.61C111.554 26.4633 111.281 26.39 110.987 26.39C110.694 26.39 110.421 26.4633 110.167 26.61C109.914 26.75 109.707 26.96 109.547 27.24C109.394 27.5133 109.317 27.84 109.317 28.22C109.317 28.6 109.394 28.9333 109.547 29.22C109.707 29.5067 109.914 29.7267 110.167 29.88C110.427 30.0267 110.701 30.1 110.987 30.1C111.281 30.1 111.554 30.0267 111.807 29.88C112.061 29.7333 112.264 29.52 112.417 29.24C112.577 28.9533 112.657 28.62 112.657 28.24ZM116.445 23.6V31H115.305V23.6H116.445Z" fill="#02BA89"/>
</svg>
