<svg width="351" height="744" viewBox="0 0 351 744" fill="none" xmlns="http://www.w3.org/2000/svg">
<path fill-rule="evenodd" clip-rule="evenodd" d="M259.624 738.483L261.157 733.309L248.724 730.722L235.61 724.513L228.287 716.58L223.177 711.751L233.226 735.033H241.741L246.68 735.378L252.3 739L259.624 738.483ZM173.787 379.587L161.184 377L154.372 386.83L155.905 389.59L154.031 400.972L144.494 406.491L147.219 424.772L145.686 428.222L149.092 432.533L143.642 439.432L139.214 449.607L137.681 459.61L140.577 470.303L137 481.513L145.345 500.311L148.07 502.381L150.284 512.556L147.559 523.249L149.944 532.562L145.005 539.978L147.559 550.153L153.18 561.018L148.922 565.157L149.433 574.988L150.625 586.025L156.245 599.133L153.52 601.202L159.651 613.447L164.931 617.414L163.569 621.898L168.337 624.14L170.551 628.106L167.486 630.003L170.551 636.384L172.425 650.526L171.233 659.667L174.298 665.186L174.128 671.912L169.529 676.568L174.809 687.951L179.237 691.745L184.517 691.055L187.582 698.989L193.543 705.197L213.98 706.577L222.155 708.129L225.902 708.819L217.898 702.61L210.915 691.745L212.448 686.744L218.408 682.432L219.26 670.015L227.265 663.979L226.924 654.321L218.068 652.079L207.168 644.318L206.998 636.212L211.937 630.866L219.941 630.693L220.282 625.002L218.238 614.482L223.177 607.756L230.16 604.479L225.902 598.96L222.155 602.409L215.343 599.133L211.085 588.44L213.64 585.68L223.177 589.647L231.693 588.095L235.951 584.301L232.885 578.954L232.715 570.676L229.308 564.122L239.186 565.157L256.558 562.915L268.31 557.051L273.93 542.737L273.419 537.218L266.777 532.389L266.606 524.628L253.322 515.143L252.811 509.452L252.13 502.208L253.663 499.794L251.789 488.929L252.3 477.718L253.152 468.923L263.2 454.091L272.227 443.398L277.847 438.914L285 432.878L284.148 424.083L278.869 417.701L274.441 419.771L273.93 429.601L266.606 437.88L259.453 439.777L248.894 438.052L239.186 434.948L246.339 418.391L244.466 413.562L234.418 409.251L222.155 401.145L214.321 399.42L195.246 381.484L193.543 379.242L182.814 378.725L180.089 387.52L173.787 379.587Z" fill="#01A478" fill-opacity="0.5" stroke="white" stroke-opacity="0.5" stroke-linejoin="round"/>
<path fill-rule="evenodd" clip-rule="evenodd" d="M235.562 359.302L238.293 357.058L236.927 350.842L239.147 346.007L240 337.374L237.269 330.468L231.807 327.532L230.441 323.043L231.465 316.827L213.201 316.309L208.592 303.532L211.323 303.36L210.811 298.525L208.762 295.417L207.909 289.029L202.276 285.748L196.302 285.921L192.034 282.64L185.548 280.568L181.451 276.424L170.697 274.698L159.772 264.856L160.284 257.432L158.748 253.115L159.431 245L146.97 246.899L142.191 250.871L133.997 255.36L132.119 258.64L127.169 258.986L120 257.95L129.388 275.734L127.511 279.36L127.681 287.13L128.193 296.453L124.95 301.978L126.999 306.122L125.121 309.748L129.9 318.899L125.121 330.813L130.412 338.237L132.461 346.18L137.923 350.842L136.046 361.547L142.361 373.806L147.653 389L154.139 387.446L160.967 377.604L173.599 380.194L179.915 388.137L182.646 379.331L193.4 379.849L195.107 382.094L197.667 368.971L197.326 363.101L200.91 353.432L217.127 350.151L225.832 350.324L235.05 356.022L235.562 359.302Z" fill="#00B182" fill-opacity="0.5" stroke="white" stroke-opacity="0.5" stroke-linejoin="round"/>
<path fill-rule="evenodd" clip-rule="evenodd" d="M241.664 116.73L239.258 117.075L233.932 116.213L230.839 119.144L226.372 121.041L223.451 121.386L222.248 123.628L217.609 123.11L211.595 117.937L211.08 112.936L208.675 107.246L210.393 97.934L213.142 94.1402L211.08 88.967L207.815 87.415L209.19 82.5866L206.956 80L201.974 80.5174L203.176 83.6213L199.568 87.7599L188.572 91.8985L181.699 93.6229L178.778 96.2095L171.218 93.4505L164.002 92.0709L162.284 93.1056L166.407 95.8646L165.892 103.28L167.095 110.177L175.342 111.039L175.857 113.454L168.813 116.558L167.61 121.214L163.658 122.938L156.442 125.525L154.552 128.801L146.992 129.663L141.837 123.8L139.947 125.18L138.229 118.627L135.48 115.178L132.215 118.972L113.487 118.799V125.525L119.157 126.732L118.814 130.87L116.924 129.836L111.425 131.56V139.492L115.721 143.631L117.267 149.839L117.095 154.667L113.315 184.672L104.553 184.155L103.35 185.879L95.4464 187.948L84.7937 195.363L84.1063 200.537L81.8727 204.33L83.0755 210.193L77.4055 213.47L77.5773 218.126L75 220.023L79.4672 230.024L85.1373 236.577L83.4191 241.405L89.7763 241.923L93.7282 247.786L102.147 248.131L109.707 241.578L110.051 258.305L114.518 259.512L119.673 257.615L126.889 258.65L131.872 258.305L133.762 255.028L142.009 250.545L146.82 246.579L159.363 244.682L158.675 252.786L160.222 257.098L159.706 264.512L170.703 274.342L181.527 276.066L185.651 280.205L192.18 282.274L196.475 285.55L202.489 285.378L208.159 288.654L209.018 295.035L211.08 298.139L211.595 302.967L208.846 303.139L213.485 315.9L231.87 316.417L230.839 322.625L232.214 327.109L237.712 330.04L240.461 336.938L239.602 345.56L237.368 350.388L238.743 356.596L235.994 358.838L239.258 365.046L239.945 379.876L250.255 381.945L253.863 379.876L260.564 382.807L262.625 386.084L264.344 396.085L265.89 400.396L269.326 400.914L272.763 399.017L276.371 401.086L276.886 407.122L276.371 413.674L275.168 419.882L279.635 417.813L284.962 424.193L285.821 432.988L278.605 439.023L272.935 443.507L263.828 454.198L253.691 469.028L259.533 467.821L270.185 476.271L273.45 475.926L284.103 482.996L292.35 489.031L298.879 496.446L295.615 501.62L299.223 508L304.206 501.62L306.783 491.273L312.281 486.1L318.982 477.478L326.714 458.164L332.556 452.129L333.93 446.783L334.445 435.747L332.212 429.711L332.727 421.434L339.772 410.57L350.081 401.776L360.39 398.672L366.575 393.671L381.18 389.533H391.317L393.207 382.98L400.424 378.152L401.455 366.943L410.217 352.63L411.076 337.973L413.825 333.489L414.341 326.419L416.231 309.347L414.513 288.827L416.918 280.722L419.324 280.55L426.025 271.065L431.695 258.65L444.925 243.475L449.564 236.232L453 218.126L451.282 211.4L447.845 197.433L444.237 193.984L435.99 193.639L428.602 190.363L416.059 178.119L401.626 168.98L387.194 169.497L368.465 163.634L357.297 167.083L358.672 161.048L354.033 154.495L337.882 147.942L325.683 143.976L318.466 151.046L317.951 140.182L300.941 138.458L298.02 135.009L305.236 126.042L305.065 118.455L299.91 116.73L294.755 97.4166L292.522 91.3812L289.257 91.8985L283.244 101.9L280.151 110.005L276.543 114.143L271.904 115.006L270.529 111.902L268.467 111.384L265.375 114.488L261.251 112.247L255.753 109.832L251.114 111.039L247.162 110.005L246.303 113.109L247.849 115.351L246.99 117.592L241.664 116.73Z" fill="#049A72" fill-opacity="0.5" stroke="white" stroke-opacity="0.5" stroke-linejoin="round"/>
<path fill-rule="evenodd" clip-rule="evenodd" d="M223.296 712.156L216.94 710.95L211.272 715.258L211.615 722.322L209.554 727.147L197.186 723.356L182.414 716.464L174.684 714.224L191.346 725.941L202.168 731.455L215.051 737.314L224.154 738.865L231.541 741.966L236.694 742.828L240.644 743L246.141 739.898L247 735.763L242.019 735.418H233.43L223.296 712.156ZM142.048 373.906L135.692 361.672L137.582 350.988L132.085 346.336L130.024 338.409L124.699 331L122.638 336.686L118 339.443L121.607 354.952L124.184 372.872L124.012 397.34V420.086L125.558 441.28L122.294 454.721L125.902 468.161L125.043 477.294L130.539 493.663L130.368 510.033L128.306 527.609L127.276 545.702L123.669 546.046L127.791 558.625L133.459 569.481L131.57 576.89L134.834 596.879L137.41 612.042L143.422 613.593L141.533 600.325L148.403 603.082L151.495 624.966L140.502 621.347L143.937 638.923L139.3 648.4L153.385 651.502L147.545 659.773L147.888 670.112L156.477 688.377L163.691 695.442L164.035 701.645L169.703 708.193L182.586 714.224L195.297 721.461L205.947 724.907L209.382 724.735L206.29 714.913L212.131 711.122L215.051 708.537H222.265L214.02 706.987L193.407 705.608L187.395 699.405L184.304 691.479L178.979 692.168L174.513 688.377L169.188 677.004L173.826 672.352L173.997 665.632L170.906 660.118L172.108 650.985L170.218 636.855L167.127 630.48L170.218 628.584L167.985 624.621L163.176 622.381L164.55 617.901L159.225 613.938L153.041 601.703L155.79 599.636L150.121 586.54L148.919 575.512L148.403 565.69L152.698 561.555L147.029 550.699L144.453 540.532L149.434 533.123L147.029 523.818L149.778 513.135L147.545 502.968L144.796 500.9L136.38 482.118L139.987 470.918L137.067 460.235L138.613 450.241L143.079 440.074L148.575 433.182L145.14 428.874L146.686 425.427L143.937 407.162L153.557 401.648L155.446 390.276L153.9 387.519L147.373 389.069L142.048 373.906Z" fill="#01A478" fill-opacity="0.5" stroke="white" stroke-opacity="0.5" stroke-linejoin="round"/>
<path fill-rule="evenodd" clip-rule="evenodd" d="M102.84 8.25636L104.919 4.62818L102.667 1.69107L99.2012 1L94.1762 6.35588L90.1909 8.77465L82.2203 14.3033L74.7694 13.4395L73.903 15.6854L67.6652 15.8582L61.9472 21.0413L59.5213 30.3709L59.348 33.9991L55.1894 35.2084L47.5654 42.8103L42.5404 42.4648L41.3274 44.0197L43.2335 50.585L41.3274 53.8676L38.2085 53.0038L36.649 58.3596L40.4611 64.2338L41.5008 73.5634L39.4215 76.3277L41.3274 86.5211L39.2481 92.9136L42.7136 95.5052L38.9017 101.207L34.5698 108.117L29.718 108.808L27.2923 112.782L27.6388 118.311L24 119.175L25.3862 122.63L35.0896 128.85L36.8224 128.677L39.2481 133.342L47.3921 134.897L50.1645 133.169L55.0162 136.797L59.1747 139.389L61.7738 138.352L68.185 143.535L71.3039 148.718L75.9824 151.655L81.8737 163.231L89.1513 164.613L94.3495 161.676L97.9882 163.576L103.706 162.54L111.33 167.723L105.266 178.953L108.211 179.126L113.236 185L117.048 154.938L117.222 150.1L115.662 143.881L111.33 139.734V131.787L116.875 130.059L118.781 131.096L119.128 126.949L113.41 125.74V119.002L132.297 119.175L135.589 115.374L138.361 118.829L140.094 125.394L142 124.012L139.054 112.955L136.628 109.154L133.163 106.735L138.188 101.379L137.841 98.7878L135.242 95.5052L133.51 88.2488L134.376 80.3014L136.628 76.6732L138.708 70.799L135.242 68.8986L129.697 70.108L122.766 69.5897L118.781 70.799L112.197 61.2967L106.652 59.9146L94.1762 60.9512L91.9236 57.1502L89.6711 56.1136L89.3245 53.8676L90.7107 49.7211L90.0176 45.4019L88.1116 42.9831L87.072 37.9728L82.047 37.1089L85.1659 30.7165L86.7254 22.9418L89.8443 18.7953L93.6564 15.6854L96.4287 10.1568L102.84 8.25636Z" fill="#00B182" fill-opacity="0.5" stroke="white" stroke-opacity="0.5" stroke-linejoin="round"/>
<path fill-rule="evenodd" clip-rule="evenodd" d="M58.6292 138.849L54.5171 136.243L49.7196 132.596L46.9781 134.333L38.9252 132.769L36.5265 128.079L34.8131 128.253L25.218 122L18.5359 126.342L13.2243 128.774L13.9097 133.29L10.1402 140.412L8.42679 147.186L5.17135 148.923L6.8848 158.998L5 162.124L10.8256 166.814L14.4237 161.777L16.6511 166.64L11.6823 174.804L12.8817 179.494L10.3116 182.099L10.6542 186.094L14.5951 185.226L18.5359 186.442L22.8193 192L28.1308 187.484L29.6729 180.015L35.3271 170.462L46.8068 166.119L57.0872 154.481L60 147.36L58.6292 138.849Z" fill="#01A478" fill-opacity="0.5" stroke="white" stroke-opacity="0.5" stroke-linejoin="round"/>
<path fill-rule="evenodd" clip-rule="evenodd" d="M237.022 72.0642L233.418 68.146L228.44 62.865L224.836 62.6947L224.664 57.073L219 50.0885L212.821 46L204.925 52.4735L203.895 56.3916L207.157 60.3097L204.582 62.354L198.746 64.2279V69.1681L196 72.2345L202.351 80.4115L207.328 79.9004L209.56 82.4557L208.187 87.2257L211.448 88.7589L213.507 93.8695L210.761 97.6173L209.045 106.816L211.448 112.438L211.963 117.378L217.97 122.489L222.604 123L223.806 120.785L226.724 120.445L231.187 118.571L234.276 115.675L239.597 116.527L242 116.186L236.336 106.646L235.134 100.684L232.045 100.513L227.925 92.677L229.813 87.0553L229.298 84.5L235.306 81.7743L237.022 72.0642Z" fill="#049A72" fill-opacity="0.5" stroke="#00B182" stroke-opacity="0.5" stroke-linejoin="round"/>
<path fill-rule="evenodd" clip-rule="evenodd" d="M112.59 184.624L107.58 178.753L104.644 178.58L110.69 167.356L103.089 162.175L97.3887 163.211L93.7612 161.312L88.579 164.247L81.3239 162.866L75.4507 151.296L70.7867 148.361L67.6774 143.18L61.2861 138L58.695 139.036L60.077 147.497L57.1404 154.577L46.776 166.147L35.2024 170.464L29.502 179.961L27.9473 187.387L22.5924 191.876L18.274 186.351L14.301 185.142L10.3279 186.005L9.98248 182.033L12.5736 179.443L11.3644 174.781L3.76379 181.688L1 189.459L6.18219 199.992L3.24559 204.827L10.3279 209.317L18.1012 216.397L21.556 224.513L25.7017 229.521L36.0661 251.451L46.776 271.655L56.1039 286.16L54.722 289.268L59.5587 298.42L67.5047 305.155L85.9879 317.07L106.026 328.121L107.235 332.611L117.426 339L122.09 336.237L124.163 330.539L129 318.624L124.163 309.472L126.063 305.845L123.991 301.701L127.273 296.175L126.754 286.851L126.582 279.08L128.482 275.454L118.981 257.667L113.799 259.567L109.308 258.358L108.962 241.608L101.362 248.17L92.8975 247.825L88.9244 241.954L82.5331 241.436L84.2605 236.6L78.56 230.039L74.0688 220.023L76.6599 218.124L76.4872 213.461L82.1876 210.18L80.9784 204.309L83.224 200.51L83.915 195.33L94.6249 187.905L102.571 185.832L103.78 184.106L112.59 184.624Z" fill="#01A478" fill-opacity="0.5" stroke="white" stroke-opacity="0.5" stroke-linejoin="round"/>
<path fill-rule="evenodd" clip-rule="evenodd" d="M256.655 72L248.724 72.8582L247.69 74.7463L236.138 72.6866L234.414 82.4702L228.379 85.2164L228.897 87.7911L227 93.4552L231.138 101.351L234.241 101.522L235.448 107.53L241.138 117.142L246.483 118L247.345 115.769L245.793 113.537L246.655 110.448L250.621 111.478L255.276 110.276L260.793 112.679L263.207 108.045L264.241 103.067L265.966 98.2612L262.345 91.9104L261.655 84.3582L267 74.9179L256.655 72Z" fill="#049A72" fill-opacity="0.5" stroke="#00B182" stroke-opacity="0.5" stroke-linejoin="round"/>
<path fill-rule="evenodd" clip-rule="evenodd" d="M299 507.851L295.385 501.364L298.656 496.104L292.114 488.565L283.85 482.429L273.176 475.24L269.905 475.591L259.231 467L253.377 468.227L252.516 477.169L252 488.565L253.894 499.61L252.344 502.065L253.033 509.429L259.747 515.565L265.945 515.214L275.242 519.948L279.89 518.896L287.121 521L296.245 514.864L299 507.851Z" fill="#00B182" fill-opacity="0.5" stroke="white" stroke-opacity="0.5" stroke-linejoin="round"/>
<path fill-rule="evenodd" clip-rule="evenodd" d="M211 45.7115L207.222 43.1154L202.242 43.4616L201.04 34.6346L193.999 29.0961L186.443 28.4039L183.351 23.2115L191.594 19.9231L180.089 20.0962L168.239 20.7885L167.896 23.5577L162.4 26.8462L155.188 25.6346L149.864 20.6154L139.56 21.827L130.974 21.6539L130.802 18.0192L124.791 11.9615L118.094 11.7885L115.174 4L111.568 7.46154L112.598 12.6538L100.406 17.1539V25.4616L103.153 29.2692L100.577 37.2308L96.4557 37.9231L93.1929 29.2692L97.8296 22.8654L98.3448 17.1539L95.4254 12.1346L101.092 10.75L101.608 8.15389L95.2536 10.0577L92.506 15.5962L88.7279 18.7115L85.6367 22.8654L84.0911 30.6539L81 37.0577L85.9802 37.9231L87.0106 42.9423L88.8997 45.3654L89.5865 49.6923L88.2127 53.8462L88.5562 56.0962L90.7887 57.1346L93.0211 60.9423L105.386 59.9039L110.881 61.2885L117.407 70.8077L121.357 69.5962L128.226 70.1154L133.721 68.9038L137.156 70.8077L135.095 76.6923L132.863 80.3269L132.004 88.2885L133.721 95.5577L136.297 98.8462L136.641 101.442L131.66 106.808L135.095 109.231L137.499 113.038L140.419 124.115L145.571 130L153.127 129.135L155.016 125.846L162.229 123.25L166.178 121.519L167.38 116.846L174.421 113.731L173.906 111.308L165.663 110.442L164.461 103.519L164.976 96.0769L160.855 93.3077L162.572 92.2692L169.785 93.6539L177.341 96.4231L180.26 93.8269L187.129 92.0962L198.12 87.9423L201.727 83.7885L200.524 80.6731L194.17 72.3654L196.918 69.25V64.2308L202.757 62.3269L205.333 60.25L202.07 56.2692L203.1 52.2885L211 45.7115Z" fill="#00B182" fill-opacity="0.5" stroke="white" stroke-opacity="0.5" stroke-linejoin="round"/>
<path fill-rule="evenodd" clip-rule="evenodd" d="M279.896 110.962L282.988 102.797L289 92.7204L287.454 88.2034L277.491 78.8221L270.448 76.2161L267.184 75L261.859 84.5551L262.546 92.1991L266.153 98.6271L264.436 103.318L263.405 108.356L261 113.22L265.123 115.479L268.215 112.352L270.276 112.873L271.65 116L276.288 115.131L279.896 110.962Z" fill="#049A72" fill-opacity="0.5" stroke="#00B182" stroke-opacity="0.5" stroke-linejoin="round"/>
</svg>
